<svg width="48" height="48" viewBox="0 0 48 48" fill="none" xmlns="http://www.w3.org/2000/svg">
<rect width="48" height="48" rx="5" fill="#1C0802"/>
<path d="M24.3333 18.6667H18.2889C15.3679 18.6667 13 16.2789 13 13.3333C13 10.3878 15.3679 8 18.2889 8H24.3333V18.6667Z" fill="url(#paint0_linear_212_178)"/>
<path d="M23.6667 29.3334H18.3333C15.3878 29.3334 13 26.9455 13 24C13 21.0545 15.3878 18.6667 18.3333 18.6667H23.6667V29.3334Z" fill="url(#paint1_linear_212_178)"/>
<path d="M18.3333 40C15.3878 40 13 37.6122 13 34.6666C13 31.7211 15.3878 29.3333 18.3333 29.3333H23.6667V34.6666C23.6667 37.6122 21.2789 40 18.3333 40Z" fill="url(#paint2_linear_212_178)"/>
<path d="M29 18.6667H23.6667V8H29C31.9455 8 34.3334 10.3878 34.3334 13.3333C34.3334 16.2789 31.9455 18.6667 29 18.6667Z" fill="url(#paint3_linear_212_178)"/>
<path d="M29 29.3334C31.9455 29.3334 34.3334 26.9455 34.3334 24C34.3334 21.0545 31.9455 18.6667 29 18.6667C26.0545 18.6667 23.6667 21.0545 23.6667 24C23.6667 26.9455 26.0545 29.3334 29 29.3334Z" fill="url(#paint4_linear_212_178)"/>
<defs>
<linearGradient id="paint0_linear_212_178" x1="17.0112" y1="6.55314" x2="22.1595" y2="20.5788" gradientUnits="userSpaceOnUse">
<stop stop-color="#F44F5A"/>
<stop offset="0.443" stop-color="#EE3D4A"/>
<stop offset="1" stop-color="#E52030"/>
</linearGradient>
<linearGradient id="paint1_linear_212_178" x1="16.5352" y1="16.8655" x2="21.6202" y2="30.8351" gradientUnits="userSpaceOnUse">
<stop stop-color="#AE4CD5"/>
<stop offset="1" stop-color="#9331BF"/>
</linearGradient>
<linearGradient id="paint2_linear_212_178" x1="15.9029" y1="25.7958" x2="21.2446" y2="40.4701" gradientUnits="userSpaceOnUse">
<stop stop-color="#33C481"/>
<stop offset="1" stop-color="#21A366"/>
</linearGradient>
<linearGradient id="paint3_linear_212_178" x1="25.5699" y1="6.10438" x2="30.6145" y2="19.9634" gradientUnits="userSpaceOnUse">
<stop stop-color="#F09CA2"/>
<stop offset="1" stop-color="#EB6773"/>
</linearGradient>
<linearGradient id="paint4_linear_212_178" x1="26.4964" y1="17.1215" x2="31.1768" y2="29.981" gradientUnits="userSpaceOnUse">
<stop stop-color="#32BDEF"/>
<stop offset="1" stop-color="#1EA2E4"/>
</linearGradient>
</defs>
</svg>
