<svg width="48" height="48" viewBox="0 0 48 48" fill="none" xmlns="http://www.w3.org/2000/svg">
<path d="M0 5.33333C0 2.388 2.388 0 5.33333 0H42.6667C45.612 0 48 2.388 48 5.33333V42.6667C48 45.612 45.612 48 42.6667 48H5.33333C2.388 48 0 45.612 0 42.6667V5.33333Z" fill="#FF5722"/>
<path d="M4 4V44H44V4H4ZM23.588 33.3333L22.572 29.4533H17.3507L16.336 33.3333H12.2867L18.2107 14.3747H21.7133L27.6773 33.3333H23.588ZM33.1333 33.3333H29.436V19.2453H33.1333V33.3333ZM32.736 17.0053C32.3747 17.3787 31.888 17.5653 31.2707 17.5653C30.6533 17.5653 30.1667 17.3787 29.8053 17.0053C29.444 16.632 29.2653 16.1627 29.2653 15.5987C29.2653 15.0253 29.448 14.5573 29.812 14.192C30.176 13.8267 30.664 13.6453 31.2707 13.6453C31.8773 13.6453 32.364 13.828 32.7293 14.192C33.0947 14.556 33.276 15.0253 33.276 15.5987C33.276 16.1627 33.096 16.632 32.736 17.0053Z" fill="#1C0802"/>
<path d="M18.1853 26.2626H21.7267L19.956 19.5053L18.1853 26.2626Z" fill="#1C0802"/>
</svg>
