<svg width="48" height="48" viewBox="0 0 48 48" fill="none" xmlns="http://www.w3.org/2000/svg">
<path d="M0 5.33333C0 2.388 2.388 0 5.33333 0H42.6667C45.612 0 48 2.388 48 5.33333V42.6667C48 45.612 45.612 48 42.6667 48H5.33333C2.388 48 0 45.612 0 42.6667V5.33333Z" fill="#03A9F4"/>
<path d="M18.688 17.5653H16.0187V23.4773H18.6493C19.3787 23.4773 19.9427 23.2386 20.3427 22.7613C20.7427 22.284 20.9413 21.5893 20.9413 20.6773C20.9413 19.7306 20.7373 18.9786 20.3293 18.4186C19.9213 17.8586 19.3733 17.5746 18.688 17.5653Z" fill="#020F16"/>
<path d="M4 4V44H44V4H4ZM23.1533 25.052C22.052 26.1293 20.524 26.6667 18.5707 26.6667H16.0187V33.3333H12.1907V14.3747H18.6493C20.524 14.3747 22.02 14.9573 23.1347 16.12C24.2493 17.2827 24.808 18.7933 24.808 20.6507C24.808 22.508 24.256 23.9747 23.1533 25.052ZM35.576 32.448C34.6307 33.212 33.388 33.5933 31.852 33.5933C30.8187 33.5933 29.9067 33.392 29.1173 32.988C28.328 32.584 27.708 32.0213 27.2613 31.3013C26.8147 30.5813 26.5907 29.804 26.5907 28.9707H30.0933C30.112 29.612 30.26 30.0947 30.5427 30.416C30.8253 30.7373 31.2867 30.8973 31.9293 30.8973C32.9187 30.8973 33.4133 30.4507 33.4133 29.556C33.4133 29.244 33.264 28.9547 32.964 28.6907C32.664 28.4267 32 28.0693 30.9667 27.6173C29.448 27.0013 28.404 26.364 27.8347 25.7027C27.2653 25.0413 26.9813 24.2227 26.9813 23.2413C26.9813 22.008 27.4267 20.9907 28.316 20.188C29.2053 19.3853 30.3853 18.984 31.8507 18.984C33.3947 18.984 34.632 19.384 35.5613 20.1813C36.4907 20.9787 36.9547 22.052 36.9547 23.3973H33.2693C33.2693 22.252 32.7933 21.6787 31.8373 21.6787C31.4467 21.6787 31.1267 21.8 30.8733 22.0427C30.62 22.2853 30.496 22.6253 30.496 23.0587C30.496 23.3707 30.6347 23.6467 30.9133 23.8853C31.192 24.124 31.8453 24.4653 32.88 24.908C34.3827 25.464 35.4427 26.0827 36.064 26.764C36.6853 27.4453 36.9947 28.3293 36.9947 29.4133C36.9947 30.6733 36.5213 31.684 35.576 32.448Z" fill="#020F16"/>
</svg>
