<svg width="48" height="48" viewBox="0 0 48 48" fill="none" xmlns="http://www.w3.org/2000/svg">
<path d="M42.6667 48H5.33333C2.388 48 0 45.612 0 42.6667V5.33333C0 2.388 2.388 0 5.33333 0H42.6667C45.612 0 48 2.388 48 5.33333V42.6667C48 45.612 45.612 48 42.6667 48Z" fill="#020F16"/>
<path d="M24.0667 28.4C14.68 31.44 9.57334 31.6933 5.56001 42.08C5.48001 42.2667 5.41334 42.4667 5.33334 42.6667C5.33334 42.4133 5.33334 42.16 5.34668 41.9067C5.44001 36.1867 6.90668 24.1467 24.6667 20C26.2267 19.6267 27.6533 19.2133 28.9467 18.76C40.6533 14.6667 25.1867 28.04 24.0667 28.4Z" fill="url(#paint0_linear_212_160)"/>
<path d="M37.0267 22.3867C37 22.4133 36.9733 22.4533 36.9467 22.48C34.92 24.5467 32.2267 26.4667 28.6667 28C28.3067 28.16 27.96 28.2933 27.6133 28.44C26.36 28.9467 25.1867 29.3733 24.0667 29.7333C14.68 32.7733 9.57334 31.6933 5.56001 42.08C5.48001 42.2667 5.41334 42.4667 5.33334 42.6667C5.36001 42.4533 5.38668 42.2267 5.42668 41.9733C5.48001 41.6133 5.54668 41.2133 5.64001 40.7867C5.64001 40.7733 5.64001 40.7467 5.65334 40.72C6.41334 36.84 8.50668 30.8 14.6667 28C18.4 26.3067 29.32 23.52 37.0267 22.3867Z" fill="url(#paint1_linear_212_160)"/>
<path d="M24.0667 29.7333C14.68 32.7733 9.34668 32.28 5.33334 42.6667L5.42668 41.9733L5.34668 41.9067C5.44001 41.56 5.53334 41.1867 5.64001 40.7867C5.64001 40.7733 5.64001 40.7467 5.65334 40.72C6.78668 36.68 10.056 30.904 17.7333 29.7333C19.9773 29.3907 24.968 29.0693 28.1533 28.2173C28.1533 28.2173 25.8987 29.1507 24.0667 29.7333Z" fill="url(#paint2_radial_212_160)"/>
<path d="M41.1733 16.0267C38.0267 18.4267 30.28 22.64 16 25.3333C17.0173 24.6987 18.1267 23.9773 20.0547 23.1733C22.6213 22.104 25.6907 20.7413 28.9467 18.76C40.6533 14.6667 42 7.4 42 5C42.6933 7.05333 43.0267 11.4133 41.1733 16.0267Z" fill="url(#paint3_linear_212_160)"/>
<path d="M36.9467 22.48C34.8 23.7867 31.6133 25.2533 26.1467 26.2933C25.4667 26.4267 24.7467 26.5467 24 26.6667C18.64 27.4933 13.7867 29.08 10.24 32.8533C9.73334 33.3867 9.26668 33.9733 8.81334 34.6C7.30668 36.6933 6.12001 39.3333 5.33334 42.6667C5.33334 42.4133 5.33334 42.16 5.34668 41.9067C5.53334 36.3467 7.89334 29.96 15.1067 25.56C17.2 24.28 19.6933 23.1733 22.6667 22.3067C23.92 21.9333 25.24 21.6133 26.6667 21.3333C33.24 20.04 37.0267 17.6133 39.1867 14.9867C42.6267 10.84 42 6.22667 42 5C43.0133 8.02667 43.2533 16.0267 36.9467 22.48Z" fill="url(#paint4_linear_212_160)"/>
<defs>
<linearGradient id="paint0_linear_212_160" x1="3.02401" y1="39.9147" x2="31.372" y2="16.128" gradientUnits="userSpaceOnUse">
<stop offset="0.18" stop-color="#CCF5AE"/>
<stop offset="0.387" stop-color="#5CEA79"/>
<stop offset="0.668" stop-color="#28ABDC"/>
<stop offset="0.841" stop-color="#0061CB"/>
</linearGradient>
<linearGradient id="paint1_linear_212_160" x1="15.864" y1="33.308" x2="33.4333" y2="18.5653" gradientUnits="userSpaceOnUse">
<stop stop-color="#FFCC8D"/>
<stop offset="0.493" stop-color="#FF4DAA"/>
<stop offset="1" stop-color="#8D0106"/>
</linearGradient>
<radialGradient id="paint2_radial_212_160" cx="0" cy="0" r="1" gradientUnits="userSpaceOnUse" gradientTransform="translate(6.60934 43.1013) scale(25.976)">
<stop stop-color="#FFE444"/>
<stop offset="0.145" stop-color="#FFE142"/>
<stop offset="0.266" stop-color="#FFD63E"/>
<stop offset="0.378" stop-color="#FFC535"/>
<stop offset="0.485" stop-color="#FEAD2A"/>
<stop offset="0.588" stop-color="#FE8D1B"/>
<stop offset="0.688" stop-color="#FD6709"/>
<stop offset="0.722" stop-color="#FD5802"/>
</radialGradient>
<linearGradient id="paint3_linear_212_160" x1="25.292" y1="14.712" x2="39.3147" y2="16.4333" gradientUnits="userSpaceOnUse">
<stop offset="0.106" stop-color="#359BE9"/>
<stop offset="0.484" stop-color="#725ECF"/>
<stop offset="0.603" stop-color="#6D59CB"/>
<stop offset="0.736" stop-color="#604CBE"/>
<stop offset="0.876" stop-color="#4A35A9"/>
<stop offset="1" stop-color="#301B91"/>
</linearGradient>
<linearGradient id="paint4_linear_212_160" x1="5.33334" y1="23.8333" x2="42.548" y2="23.8333" gradientUnits="userSpaceOnUse">
<stop stop-color="#FFF9E5"/>
<stop offset="0.302" stop-color="#FBDEBA"/>
<stop offset="0.698" stop-color="#D648DB"/>
<stop offset="1" stop-color="#7E4EE3"/>
</linearGradient>
</defs>
</svg>
